<svg xmlns="http://www.w3.org/2000/svg" viewBox="0 0 512 512">
  <rect width="512" height="512" rx="112" fill="#f5ecd6"/>
  <rect x="26" y="26" width="460" height="460" rx="94" fill="none" stroke="#bd4635" stroke-width="18"/>
  <circle cx="256" cy="156" r="64" fill="#dfaa43"/>
  <g fill="#bd4635">
    <path d="M256 58l12 49h-24zM256 254l-12-49h24zM158 156l49-12v24zM354 156l-49 12v-24z"/>
    <path d="M187 87l43 26-17 17zM325 225l-43-26 17-17zM187 225l26-43 17 17zM325 87l-26 43-17-17z"/>
  </g>
  <path d="M88 386l105-125 63 72 52-55 116 108z" fill="#173c50"/>
  <path d="M88 386h336v38H88z" fill="#173c50"/>
  <path d="M164 386c28-43 61-64 99-64 35 0 64 15 87 45-36-10-66-7-92 10-20 13-36 29-48 47h-76z" fill="#f5ecd6"/>
  <circle cx="375" cy="354" r="19" fill="#bd4635"/>
</svg>
